<?xml version="1.0" standalone="no"?><!DOCTYPE svg PUBLIC "-//W3C//DTD SVG 1.1//EN" "http://www.w3.org/Graphics/SVG/1.1/DTD/svg11.dtd"><svg t="1561360828291" class="icon" viewBox="0 0 1024 1024" version="1.1" xmlns="http://www.w3.org/2000/svg" p-id="21738" xmlns:xlink="http://www.w3.org/1999/xlink" width="100" height="100"><defs><style type="text/css"></style></defs><path d="M512 65C265.146 65 65 265.146 65 512c0 246.854 200.146 447 447 447 246.854 0 447-200.146 447-447C959 265.146 758.854 65 512 65zM512 929.2C281.952 929.2 94.8 742.048 94.8 512S281.952 94.8 512 94.8 929.2 281.952 929.2 512 742.048 929.2 512 929.2z" p-id="21739"></path><path d="M621.306 275.55 385.917 512 621.306 748.45 638.082 731.601 419.472 512 638.082 292.429Z" p-id="21740"></path></svg>