<?xml version="1.0" standalone="no"?><!DOCTYPE svg PUBLIC "-//W3C//DTD SVG 1.1//EN" "http://www.w3.org/Graphics/SVG/1.1/DTD/svg11.dtd"><svg t="1561361965639" class="icon" viewBox="0 0 1024 1024" version="1.1" xmlns="http://www.w3.org/2000/svg" p-id="25547" width="100" height="100" xmlns:xlink="http://www.w3.org/1999/xlink"><defs><style type="text/css"></style></defs><path d="M 23.3437 441.227 a 30.167 30.167 0 0 0 5.82375 0.596934 a 29.1188 29.1188 0 0 0 28.5073 -23.295 A 462.391 462.391 0 0 1 418.5 57.7329 a 29.1188 29.1188 0 0 0 -11.6475 -57.0582 a 522.463 522.463 0 0 0 -406.207 406.207 A 29.1188 29.1188 0 0 0 23.3437 441.227 Z M 418.5 966.296 a 459.072 459.072 0 0 1 -165.758 -69.754 a 467.196 467.196 0 0 1 -68.6475 -56.636 a 461.532 461.532 0 0 1 -126.39 -234.406 a 29.1188 29.1188 0 1 0 -57.0582 11.6475 a 522.361 522.361 0 0 0 406.207 406.207 a 29.1188 29.1188 0 0 0 11.6475 -57.0582 Z M 1000.63 582.802 a 29.1188 29.1188 0 0 0 -34.3601 22.6981 a 462.391 462.391 0 0 1 -360.796 360.796 a 29.1188 29.1188 0 1 0 11.6475 57.0582 a 522.521 522.521 0 0 0 406.207 -406.207 a 29.1188 29.1188 0 0 0 -22.6981 -34.3456 Z M 605.471 57.7329 a 462.391 462.391 0 0 1 360.796 360.796 a 29.1188 29.1188 0 0 0 28.4927 23.295 a 29.9486 29.9486 0 0 0 5.82375 -0.596934 a 29.1188 29.1188 0 0 0 22.6981 -34.3747 a 522.521 522.521 0 0 0 -406.207 -406.207 a 29.1188 29.1188 0 1 0 -11.6475 57.0582 Z M 831.083 512.015 a 319.127 319.127 0 1 0 -93.4712 225.67 a 316.958 316.958 0 0 0 93.4712 -225.67 Z m -319.098 145.448 a 145.448 145.448 0 1 1 145.448 -145.448 a 145.594 145.594 0 0 1 -145.448 145.448 Z" fill="#6d0b0b" p-id="25548" data-spm-anchor-id="a313x.7781069.0.i36" class="selected"></path></svg>