<?xml version="1.0" standalone="no"?><!DOCTYPE svg PUBLIC "-//W3C//DTD SVG 1.1//EN" "http://www.w3.org/Graphics/SVG/1.1/DTD/svg11.dtd"><svg t="1561360781910" class="icon" viewBox="0 0 1024 1024" version="1.1" xmlns="http://www.w3.org/2000/svg" p-id="20260" xmlns:xlink="http://www.w3.org/1999/xlink" width="100" height="100"><defs><style type="text/css"></style></defs><path d="M512 65C265.146 65 65 265.131 65 511.985 65 758.84 265.161 959 512.015 959 758.869 959 959 758.854 959 512 959 265.146 758.854 65 512 65zM512 929.186C281.952 929.2 94.8 742.048 94.8 511.985 94.8 281.952 281.967 94.8 512 94.8c230.063 0 417.2 187.138 417.2 417.186C929.2 742.048 742.048 929.2 512 929.186z" p-id="20261"></path><path d="M275.564 598.955 292.429 615.718 512.015 397.107 731.6 615.718 748.45 598.941 512 363.567Z" p-id="20262"></path></svg>