<?xml version="1.0" standalone="no"?><!DOCTYPE svg PUBLIC "-//W3C//DTD SVG 1.1//EN" "http://www.w3.org/Graphics/SVG/1.1/DTD/svg11.dtd"><svg t="1561443012970" class="icon" viewBox="0 0 1024 1024" version="1.1" xmlns="http://www.w3.org/2000/svg" p-id="4858" width="200" height="200" xmlns:xlink="http://www.w3.org/1999/xlink"><defs><style type="text/css"></style></defs><path d="M512.412377 511.97709m-511.977091 0a511.97709 511.97709 0 1 0 1023.954181 0 511.97709 511.97709 0 1 0-1023.954181 0Z" fill="#FCBA63" p-id="4859"></path><path d="M512.412377 73.311408a438.803141 438.803141 0 0 1 170.678121 842.886458A438.803141 438.803141 0 0 1 341.676981 107.756315 435.916504 435.916504 0 0 1 512.412377 73.311408m0-73.311408C229.647985 0 0.435286 229.212699 0.435286 512.034365s229.212699 511.965635 512.034365 511.965635S1024.378012 794.730027 1024.378012 512.034365 795.165313 0 512.412377 0z" fill="#471D18" p-id="4860"></path><path d="M959.062129 511.484529c-0.778934 59.966441-57.812918 115.396738-117.985547 115.396738-56.025953 0-109.268363-48.992639-115.992393-103.208716 0.229098-4.077947-0.801844-8.178804-0.801843-12.291116 0-121.422019-90.493769-209.624807-211.915789-209.624807s-213.061279 88.145513-213.061279 209.624807q0 4.776696 0.206188 9.496118c-5.452536 55.556301-59.313511 106.003714-116.290221 106.003714s-110.84914-50.470322-116.278766-106.072443c0-2.966821-1.23713-5.922187-1.23713-8.900463a435.893595 435.893595 0 0 1 34.444907-170.678122c22.085062-52.222923 54.869007-103.735642 95.178826-144.045461S289.431148 121.754212 341.665526 99.657695c54.032799-22.909815 111.467705-33.287961 170.678121-33.287961S635.953554 77.9621 689.986353 100.803186a440.464103 440.464103 0 0 1 233.496834 233.508289c22.795266 53.91825 35.521668 118.077186 35.578942 177.173054z" fill="#d4237a" p-id="4861" data-spm-anchor-id="a313x.7781069.0.i5" class="selected"></path><path d="M512.412377 73.311408a438.803141 438.803141 0 0 1 170.678121 842.886458A438.803141 438.803141 0 0 1 341.676981 107.756315 435.916504 435.916504 0 0 1 512.412377 73.311408m0-73.311408C229.647985 0 0.435286 229.212699 0.435286 512.034365s229.212699 511.965635 512.034365 511.965635S1024.378012 794.730027 1024.378012 512.034365 795.165313 0 512.412377 0z" fill="#471D18" p-id="4862"></path><path d="M512.412377 569.709824m-219.934224 0a219.934224 219.934224 0 1 0 439.868447 0 219.934224 219.934224 0 1 0-439.868447 0Z" fill="#FA9739" p-id="4863"></path><path d="M512.412377 511.43871m-219.934224 0a219.934224 219.934224 0 1 0 439.868447 0 219.934224 219.934224 0 1 0-439.868447 0Z" fill="#FFFFFF" p-id="4864"></path><path d="M512.400922 364.815894a146.622816 146.622816 0 1 1-103.666913 42.978813 145.637694 145.637694 0 0 1 103.666913-42.944449m0-73.311408c-121.422019 0-219.934224 98.512204-219.934224 219.934224s98.512204 219.934224 219.934224 219.934224 219.934224-98.512204 219.934224-219.934224-98.512204-219.934224-219.934224-219.934224z" fill="#471D18" p-id="4865"></path><path d="M292.100141 510.888874c-0.400922 60.287178-48.419894 109.211088-108.821621 109.211088A110.093116 110.093116 0 0 1 73.311408 510.888874H0a183.27852 183.27852 0 0 0 183.27852 182.488131c100.97501 0 181.720652-81.650581 182.133029-182.522496zM951.078059 510.888874a110.093116 110.093116 0 0 1-109.967112 109.211088c-60.378817 0-108.39779-48.92391-108.821621-109.211088h-73.311408c0.412377 100.871915 81.15802 182.522496 182.133029 182.522496a183.27852 183.27852 0 0 0 183.27852-182.522496z" fill="#471D18" p-id="4866"></path><path d="M284.54109 291.33203a63.998568 95.992125 45 1 0 135.753365-135.753365 63.998568 95.992125 45 1 0-135.753365 135.753365Z" fill="#471D18" p-id="4867"></path><path d="M383.865405 141.857574c-24.330224 0-53.127861 12.760767-76.74788 36.334967-37.491912 37.491912-47.61805 88.145513-22.623443 113.140121 9.26702 9.26702 22.073607 13.745889 36.426606 13.745889 24.330224 0 53.116406-12.749312 76.74788-36.334966 37.491912-37.480457 47.61805-88.134058 22.623443-113.128667-9.26702-9.26702-22.073607-13.745889-36.426606-13.745889z" fill="#FFDCB6" p-id="4868"></path><path d="M741.020415 359.268974a70.619505 47.07967 27 1 0 42.747445-83.896586 70.619505 47.07967 27 1 0-42.747445 83.896586Z" fill="#471D18" p-id="4869"></path><path d="M741.224154 264.539634c-18.946417 0-34.811464 7.147862-41.741683 20.744837-11.798555 23.161823 6.804215 56.30087 41.558404 74.010157 14.352999 7.319686 29.221469 10.859252 42.554982 10.859253 18.946417 0 34.811464-7.147862 41.741682-20.744838 11.81001-23.161823-6.79276-56.30087-41.546949-74.010157-14.364454-7.319686-29.221469-10.859252-42.566436-10.859252z" fill="#FFDCB6" p-id="4870"></path><path d="M166.083662 485.291536a29.897309 44.857418 27 1 0 40.729683-79.936503 29.897309 44.857418 27 1 0-40.729683 79.936503Z" fill="#471D18" p-id="4871"></path><path d="M197.150413 403.121104c-13.230418 0-28.396716 11.076896-37.354454 28.637269-11.237264 22.073607-8.430812 46.048728 6.288745 53.540238a20.916661 20.916661 0 0 0 9.645032 2.290981c13.241873 0 28.396716-11.065441 37.354453-28.637269 11.248719-22.073607 8.442267-46.048728-6.277289-53.540237a20.996845 20.996845 0 0 0-9.656487-2.290982z" fill="#FFDCB6" p-id="4872"></path><path d="M588.830646 215.971888a44.857418 29.897309 27 1 0 27.146188-53.277394 44.857418 29.897309 27 1 0-27.146188 53.277394Z" fill="#471D18" p-id="4873"></path><path d="M588.965523 155.786742c-12.027653 0-22.107971 4.581963-26.506656 13.173143-7.502964 14.708101 4.3185 35.750766 26.346288 46.965121a60.344453 60.344453 0 0 0 27.022126 6.872945c12.039108 0 22.107971-4.581963 26.506656-13.173144 7.502964-14.708101-4.307045-35.762221-26.346287-46.965121a60.481912 60.481912 0 0 0-27.033581-6.872944z" fill="#FFDCB6" p-id="4874"></path><path d="M840.127025 520.186776a44.857418 29.897309 27 1 0 27.146188-53.277394 44.857418 29.897309 27 1 0-27.146188 53.277394Z" fill="#471D18" p-id="4875"></path><path d="M840.274739 460.04054c-12.039108 0-22.119426 4.581963-26.518111 13.173143-7.491509 14.719556 4.3185 35.762221 26.346287 46.965121a60.481912 60.481912 0 0 0 27.033582 6.872944c12.027653 0 22.107971-4.581963 26.506656-13.161688 7.491509-14.719556-4.3185-35.762221-26.346287-46.965121a60.344453 60.344453 0 0 0-27.022127-6.872944z" fill="#FFDCB6" p-id="4876"></path></svg>